
<svg width="128px" height="44px" viewBox="0 0 128 44" version="1.1" xmlns="http://www.w3.org/2000/svg" xmlns:xlink="http://www.w3.org/1999/xlink">
    <defs>
        <polygon id="path-1" points="0.104588034 0.566341463 21.7125197 0.566341463 21.7125197 43.902 0.104588034 43.902"></polygon>
        <polygon id="path-3" points="0.616478632 0.110963415 21.3563077 0.110963415 21.3563077 39.9765732 0.616478632 39.9765732"></polygon>
    </defs>
    <g id="Page-1" stroke="none" stroke-width="1" fill="none" fill-rule="evenodd">
        <g id="DC1-JT-Copy-14" transform="translate(-692.000000, -2354.000000)">
            <g id="Courses" transform="translate(146.000000, 2077.000000)">
                <g id="Group-5-Copy-14" transform="translate(414.000000, 202.000000)">
                    <g id="AIM" transform="translate(132.000000, 74.000000)">
                        <g id="Group-3" transform="translate(50.324786, 0.531659)">
                            <mask id="mask-2" fill="white">
                                <use xlink:href="#path-1"></use>
                            </mask>
                            <g id="Clip-2"></g>
                            <path d="M20.4861265,0.565902439 L1.33207521,0.565902439 C0.653784615,0.565902439 0.104588034,1.11687805 0.104588034,1.79736585 L0.104588034,42.6716341 C0.104588034,43.3510244 0.653784615,43.902 1.33207521,43.902 L20.4861265,43.902 C21.1633231,43.902 21.7125197,43.3510244 21.7125197,42.6716341 L21.7125197,1.79736585 C21.7125197,1.11687805 21.1633231,0.565902439 20.4861265,0.565902439" id="Fill-1" fill="#00D5FF" mask="url(#mask-2)"></path>
                        </g>
                        <path d="M41.5693675,42.6516585 L32.001094,23.4608049 L20.416547,30.8770244 L20.416547,44.4340976 L40.4720684,44.4340976 C40.6635214,44.4340976 40.8516923,44.3890976 41.021265,44.3034878 C41.6284444,44.000561 41.8724103,43.2597073 41.5693675,42.6516585" id="Fill-4" fill="#21304C"></path>
                        <path d="M0.178434188,43.8338415 L32.0012034,23.4609146 L21.9482803,3.29871951 C21.8290325,3.06054878 21.6364855,2.86737805 21.3979897,2.74884146 C20.7929983,2.44481707 20.0556308,2.69067073 19.752588,3.29871951 L0.130297436,42.6517683 C0.0438700855,42.8229878 0.000109401712,43.0106707 0.000109401712,43.2027439 C0.000109401712,43.4343293 0.0679384615,43.6494512 0.178434188,43.8338415" id="Fill-6" fill="#00F995"></path>
                        <path d="M1.22748718,44.4340976 L20.416547,44.4340976 L20.416547,30.8770244 L0.178324786,43.8337317 C0.392752137,44.1915366 0.780034188,44.4340976 1.22748718,44.4340976" id="Fill-8" fill="#00D5FF"></path>
                        <path d="M86.3547077,3.19840244 C85.8755282,2.71767073 85.0987761,2.71767073 84.6185026,3.19840244 C84.387665,3.4299878 84.259665,3.74279268 84.259665,4.06876829 L84.259665,42.7029146 L105.000041,21.8953537 L86.3547077,3.19840244 Z" id="Fill-10" fill="#00D5FF"></path>
                        <g id="Group-14" transform="translate(106.119658, 2.726780)">
                            <mask id="mask-4" fill="white">
                                <use xlink:href="#path-3"></use>
                            </mask>
                            <g id="Clip-13"></g>
                            <path d="M21.3568547,1.34242683 C21.3568547,0.661939024 20.8065641,0.110963415 20.1293675,0.110963415 C19.8033504,0.110963415 19.4915556,0.24047561 19.261812,0.472060976 L0.616478632,19.1690122 L21.3568547,39.9765732 L21.3568547,1.34242683 Z" id="Fill-12" fill="#21304C" mask="url(#mask-4)"></path>
                        </g>
                        <path d="M106.735043,21.8954634 C106.256957,22.3750976 105.480205,22.3750976 104.999932,21.8954634 L84.2584615,42.7030244 L84.2584615,43.2024146 C84.2584615,43.8829024 84.8087521,44.433878 85.4859487,44.433878 L126.247932,44.433878 C126.926222,44.433878 127.475419,43.8829024 127.475419,43.2024146 L127.475419,42.7030244 L106.735043,21.8954634 Z" id="Fill-15" fill="#00F995"></path>
                    </g>
                </g>
            </g>
        </g>
    </g>
</svg>