
<svg width="53px" height="18px" viewBox="0 0 53 18" version="1.1" xmlns="http://www.w3.org/2000/svg" xmlns:xlink="http://www.w3.org/1999/xlink">
    <defs>
        <polygon id="path-1" points="0.0427361673 0.21782364 8.87204622 0.21782364 8.87204622 16.8853846 0.0427361673 16.8853846"></polygon>
        <polygon id="path-3" points="0.251901991 0.0426782364 8.72649291 0.0426782364 8.72649291 15.3756051 0.251901991 15.3756051"></polygon>
    </defs>
    <g id="Page-1" stroke="none" stroke-width="1" fill="none" fill-rule="evenodd">
        <g id="DC1-JT-Copy-14" transform="translate(-2321.000000, -5363.000000)">
            <g id="FOOTER-Copy-3" transform="translate(1204.000000, 5182.000000)">
                <g id="Courses" transform="translate(1116.000000, 91.000000)">
                    <g id="AIM" transform="translate(1.000000, 90.000000)">
                        <g id="Group-3" transform="translate(20.563428, 0.204484)">
                            <mask id="mask-2" fill="white">
                                <use xlink:href="#path-1"></use>
                            </mask>
                            <g id="Clip-2"></g>
                            <path d="M8.37092443,0.217654784 L0.544304993,0.217654784 C0.267145749,0.217654784 0.0427361673,0.42956848 0.0427361673,0.691294559 L0.0427361673,16.412167 C0.0427361673,16.6734709 0.267145749,16.8853846 0.544304993,16.8853846 L8.37092443,16.8853846 C8.64763664,16.8853846 8.87204622,16.6734709 8.87204622,16.412167 L8.87204622,0.691294559 C8.87204622,0.42956848 8.64763664,0.217654784 8.37092443,0.217654784" id="Fill-1" fill="#C9D1D6" mask="url(#mask-2)"></path>
                        </g>
                        <path d="M16.9858384,16.4044841 L13.0761049,9.02338649 L8.34249325,11.8757786 L8.34249325,17.0900375 L16.5374663,17.0900375 C16.6156967,17.0900375 16.692586,17.0727298 16.7618758,17.039803 C17.0099781,16.9232927 17.109666,16.638349 16.9858384,16.4044841" id="Fill-4" fill="#BAC4CB" opacity="0.600000024"></path>
                        <path d="M0.0729107625,16.8591698 L13.0761496,9.02342871 L8.96838141,1.26873827 C8.91965503,1.17713415 8.84097756,1.10283771 8.7435248,1.05724672 C8.49631663,0.940314259 8.19501771,1.03487336 8.07119011,1.26873827 L0.0532413968,16.4045263 C0.0179259447,16.4703799 4.47031049e-05,16.5425657 4.47031049e-05,16.61644 C4.47031049e-05,16.7055113 0.0277606275,16.7882505 0.0729107625,16.8591698" id="Fill-6" fill="#E7EAEC"></path>
                        <path d="M0.501568826,17.0900375 L8.34249325,17.0900375 L8.34249325,11.8757786 L0.0728660594,16.8591276 C0.160484143,16.9967448 0.318733131,17.0900375 0.501568826,17.0900375" id="Fill-8" fill="#C9D1D6"></path>
                        <path d="M35.2857692,1.23015478 C35.0899696,1.04525797 34.7725776,1.04525797 34.576331,1.23015478 C34.4820074,1.31922608 34.4297048,1.43953565 34.4297048,1.56491088 L34.4297048,16.4241979 L42.9045192,8.42128987 L35.2857692,1.23015478 Z" id="Fill-10" fill="#C8D1D7"></path>
                        <g id="Group-14" transform="translate(43.362011, 1.048762)">
                            <mask id="mask-4" fill="white">
                                <use xlink:href="#path-3"></use>
                            </mask>
                            <g id="Clip-13"></g>
                            <path d="M8.72671643,0.516318011 C8.72671643,0.254591932 8.50185982,0.0426782364 8.2251476,0.0426782364 C8.09193235,0.0426782364 7.96452851,0.0924906191 7.87065199,0.181561914 L0.251901991,7.372697 L8.72671643,15.3756051 L8.72671643,0.516318011 Z" id="Fill-12" fill="#BAC4CB" opacity="0.600000024" mask="url(#mask-4)"></path>
                        </g>
                        <path d="M43.6134658,8.42133208 C43.4181132,8.60580675 43.1007212,8.60580675 42.9044745,8.42133208 L34.4292131,16.4242402 L34.4292131,16.6163133 C34.4292131,16.8780394 34.6540697,17.0899531 34.9307819,17.0899531 L51.5867114,17.0899531 C51.8638706,17.0899531 52.0882802,16.8780394 52.0882802,16.6163133 L52.0882802,16.4242402 L43.6134658,8.42133208 Z" id="Fill-15" fill="#E7EAEC"></path>
                    </g>
                </g>
            </g>
        </g>
    </g>
</svg>