
<svg width="29px" height="22px" viewBox="0 0 29 22" version="1.1" xmlns="http://www.w3.org/2000/svg" xmlns:xlink="http://www.w3.org/1999/xlink">
    <g id="Page-1" stroke="none" stroke-width="1" fill="none" fill-rule="evenodd">
        <g id="DC1-JT-Copy-14" transform="translate(-1116.000000, -3063.000000)" fill="#2D323C">
            <g id="arrowleft" transform="translate(1052.000000, 3063.000000)">
                <path d="M91.6826002,12.3039126 L68.5151375,12.3039126 L76.1475588,19.7864675 C76.4833554,20.1130214 76.6153576,20.5910382 76.4935355,21.0393457 C76.3717134,21.4876532 76.0147106,21.8376424 75.5578342,21.9566646 C75.1009577,22.0756868 74.614128,21.9455269 74.2818573,21.6155164 L64.3865384,11.9142965 C64.1390715,11.6719268 64,11.3428813 64,10.9997397 C64,10.6565982 64.1390715,10.3275526 64.3865384,10.085183 L74.2818573,0.383898468 C74.6142319,0.0542180535 75.100928,-0.0756724895 75.5576131,0.0434218758 C76.0142982,0.162516241 76.3711398,0.512384547 76.4929868,0.960516884 C76.6148337,1.40864922 76.4830543,1.88652074 76.1475588,2.2131413 L68.4928075,9.71767922 L91.6826002,9.71767922 C92.1532618,9.7176792 92.5881711,9.96414584 92.8235019,10.3642375 C93.0588327,10.7643292 93.0588327,11.2572625 92.8235019,11.6573542 C92.5881711,12.0574459 92.1532618,12.3039126 91.6826002,12.3039126 Z" id="Path-Copy" transform="translate(78.500000, 11.000000) scale(-1, 1) rotate(-180.000000) translate(-78.500000, -11.000000) "></path>
            </g>
        </g>
    </g>
</svg>