<svg width="12px" height="6px" viewBox="0 0 12 6" version="1.1" xmlns="http://www.w3.org/2000/svg" xmlns:xlink="http://www.w3.org/1999/xlink">
    <g id="Page-1" stroke="none" stroke-width="1" fill="none" fill-rule="evenodd">
        <g id="JUMPTOP" transform="translate(-1288.000000, -56.000000)" fill="#FFFFFF">
            <g id="NAV-A-Copy" transform="translate(101.000000, 45.000000)">
                <path d="M1193.49824,16.8151596 C1193.36608,16.9335032 1193.18674,17 1192.99974,17 C1192.81273,17 1192.63339,16.9335032 1192.50124,16.8151596 L1187.21332,12.0831697 C1187.0312,11.9246079 1186.95856,11.6906533 1187.02321,11.4708036 C1187.08785,11.2509539 1187.27978,11.0792303 1187.52556,11.0213246 C1187.77133,10.9634188 1188.03294,11.0282917 1188.21029,11.1911264 L1192.9997,15.4769686 L1197.78911,11.1911264 C1197.9664,11.0279957 1198.22816,10.9628951 1198.47415,11.0207589 C1198.72014,11.0786226 1198.91223,11.2504834 1198.97685,11.4705166 C1199.04146,11.6905498 1198.96859,11.9246559 1198.78615,12.0831697 L1193.49824,16.8151596 Z" id="Path"></path>
            </g>
        </g>
    </g>
</svg>