<?xml version="1.0" encoding="utf-8"?>
<!-- Generator: Adobe Illustrator 22.1.0, SVG Export Plug-In . SVG Version: 6.00 Build 0)  -->
<svg version="1.1" id="Layer_1" xmlns="http://www.w3.org/2000/svg" xmlns:xlink="http://www.w3.org/1999/xlink" x="0px" y="0px"
	 viewBox="0 0 8.3 16" style="enable-background:new 0 0 8.3 16;" xml:space="preserve">
<style type="text/css">
	.st0{display:none;}
	.st1{display:inline;fill:#A0A7B2;}
	.st2{display:inline;fill:#FAFAFA;}
	.st3{fill:#A0A7B2;}
</style>
<g class="st0">
	<path class="st1" d="M14.8,1.5c-0.6-1.1-1.3-1.3-2.7-1.4C10.7,0,7.2,0,4.2,0c-3,0-6.5,0-7.9,0.1c-1.4,0.1-2.1,0.3-2.7,1.4
		c-0.7,1.1-1,3.1-1,6.5c0,0,0,0,0,0c0,0,0,0,0,0v0c0,3.4,0.3,5.3,1,6.4c0.6,1.1,1.3,1.3,2.7,1.4C-2.4,16,1.1,16,4.2,16
		c3,0,6.5,0,7.9-0.1c1.4-0.1,2.1-0.3,2.7-1.4c0.7-1.1,1-3.1,1-6.4c0,0,0,0,0,0c0,0,0,0,0,0C15.8,4.6,15.5,2.7,14.8,1.5z"/>
	<polygon class="st2" points="1.2,12.4 1.2,3.6 8.5,8 	"/>
</g>
<path class="st3" d="M5.4,16V8.7h2.4l0.4-2.8H5.4V4c0-0.8,0.2-1.4,1.4-1.4l1.5,0V0.1C8,0.1,7.2,0,6.1,0C3.9,0,2.5,1.3,2.5,3.8v2.1H0
	v2.8h2.5V16L5.4,16L5.4,16z"/>
</svg>
