
<svg width="33px" height="33px" viewBox="0 0 33 33" version="1.1" xmlns="http://www.w3.org/2000/svg" xmlns:xlink="http://www.w3.org/1999/xlink">
    <defs>
        <linearGradient x1="50%" y1="0%" x2="0%" y2="100%" id="linearGradient-1">
            <stop stop-color="#860193" offset="0%"></stop>
            <stop stop-color="#FF1622" offset="57.7741149%"></stop>
            <stop stop-color="#FFE005" offset="100%"></stop>
        </linearGradient>
    </defs>
    <g id="Page-1" stroke="none" stroke-width="1" fill="none" fill-rule="evenodd">
        <g id="DC1-JT-Copy-14" transform="translate(-278.000000, -3917.000000)" fill-rule="nonzero">
            <g id="Story-Copy-2" transform="translate(51.000000, 3245.000000)">
                <g id="SOCIAL" transform="translate(63.000000, 656.000000)">
                    <g id="IG" transform="translate(164.000000, 16.000000)">
                        <circle id="Oval-Copy" fill="url(#linearGradient-1)" cx="16.5" cy="16.5" r="16.5"></circle>
                        <path d="M16.5022882,11.2405942 C13.5917261,11.2405942 11.2440557,13.5887884 11.2440557,16.5 C11.2440557,19.4112116 13.5917261,21.7594058 16.5022882,21.7594058 C19.4128503,21.7594058 21.7605206,19.4112116 21.7605206,16.5 C21.7605206,13.5887884 19.4128503,11.2405942 16.5022882,11.2405942 Z M16.5022882,19.9193004 C14.6214061,19.9193004 13.0837506,18.3858792 13.0837506,16.5 C13.0837506,14.6141208 14.6168297,13.0806996 16.5022882,13.0806996 C18.3877466,13.0806996 19.9208257,14.6141208 19.9208257,16.5 C19.9208257,18.3858792 18.3831703,19.9193004 16.5022882,19.9193004 Z M23.2020726,11.0254575 C23.2020726,11.7074866 22.65291,12.2521945 21.9756094,12.2521945 C21.2937324,12.2521945 20.7491461,11.7029093 20.7491461,11.0254575 C20.7491461,10.3480058 21.2983087,9.79872057 21.9756094,9.79872057 C22.65291,9.79872057 23.2020726,10.3480058 23.2020726,11.0254575 Z M26.6846792,12.270504 C26.6068811,10.6272257 26.23162,9.17161996 25.0280385,7.97234728 C23.8290333,6.77307459 22.3737523,6.39772971 20.7308407,6.31533693 C19.0375891,6.21921202 13.9624109,6.21921202 12.2691593,6.31533693 C10.6308241,6.39315233 9.17554303,6.76849722 7.97196153,7.9677699 C6.76838004,9.16704259 6.39769524,10.6226484 6.31532084,12.2659266 C6.21921738,13.959556 6.21921738,19.0358667 6.31532084,20.729496 C6.39311889,22.3727743 6.76838004,23.82838 7.97196153,25.0276527 C9.17554303,26.2269254 10.6262477,26.6022703 12.2691593,26.6846631 C13.9624109,26.780788 19.0375891,26.780788 20.7308407,26.6846631 C22.3737523,26.6068477 23.8290333,26.2315028 25.0280385,25.0276527 C26.2270436,23.82838 26.6023048,22.3727743 26.6846792,20.729496 C26.7807826,19.0358667 26.7807826,13.9641333 26.6846792,12.270504 Z M24.4971812,22.5467146 C24.1402255,23.4438804 23.4491958,24.1350643 22.5476538,24.496677 C21.1976289,25.0322301 17.9941801,24.9086409 16.5022882,24.9086409 C15.0103963,24.9086409 11.8023711,25.0276527 10.4569226,24.496677 C9.55995689,24.1396416 8.86892721,23.4484578 8.50739513,22.5467146 C7.97196153,21.1963885 8.09552313,17.9922248 8.09552313,16.5 C8.09552313,15.0077752 7.97653789,11.7990342 8.50739513,10.4532854 C8.86435085,9.5561196 9.55538053,8.86493573 10.4569226,8.50332297 C11.8069474,7.9677699 15.0103963,8.09135907 16.5022882,8.09135907 C17.9941801,8.09135907 21.2022053,7.97234728 22.5476538,8.50332297 C23.4446195,8.86035835 24.1356491,9.55154223 24.4971812,10.4532854 C25.0326148,11.8036115 24.9090532,15.0077752 24.9090532,16.5 C24.9090532,17.9922248 25.0326148,21.2009658 24.4971812,22.5467146 Z" id="Shape" fill="#FFFFFF"></path>
                    </g>
                </g>
            </g>
        </g>
    </g>
</svg>