
<svg width="117px" height="25px" viewBox="0 0 117 25" version="1.1" xmlns="http://www.w3.org/2000/svg" xmlns:xlink="http://www.w3.org/1999/xlink">
    <g id="Page-1" stroke="none" stroke-width="1" fill="none" fill-rule="evenodd">
        <g id="DC1-JT-Copy-14" transform="translate(-2244.000000, -1177.000000)" fill="#FFFFFF">
            <g id="Nav" transform="translate(1701.000000, 1175.000000)">
                <path d="M548.94,26.352 C544.364,26.352 542.892,23.76 543.66,19.408 L544.076,16.912 L548.364,16.912 L547.82,20.048 C547.532,21.648 547.884,22.48 549.196,22.48 C550.444,22.48 550.956,21.68 551.308,19.728 L554.22,3.056 L558.508,3.056 L555.564,19.76 C554.732,24.496 552.748,26.352 548.94,26.352 Z M565.3,26.352 C560.404,26.352 559.028,23.44 559.892,18.48 L562.612,3.056 L566.804,3.056 L563.988,19.024 C563.508,21.584 564.18,22.32 565.556,22.32 C566.932,22.32 567.7,21.68 568.116,19.152 L570.964,3.056 L575.124,3.056 L572.244,19.44 C571.412,24.24 569.588,26.352 565.3,26.352 Z M581.276,13.808 L579.164,26 L575.292,26 L579.324,3.056 L583.036,3.056 L585.148,12.976 L585.148,13.008 L585.18,12.944 L590.812,3.056 L594.556,3.056 L590.556,26 L586.684,26 L588.86,13.68 L590.236,8.976 L588.924,11.888 L584.636,19.312 L583.644,19.312 L581.916,11.92 L581.66,8.944 L581.276,13.808 Z M604.1,6.576 L602.34,6.576 L600.836,15.184 L602.436,15.184 C604.228,15.184 605.22,14.384 605.54,12.464 L606.116,9.072 C606.404,7.408 605.764,6.576 604.1,6.576 Z M602.084,18.8 L600.196,18.8 L598.916,26 L594.852,26 L598.884,3.056 L604.868,3.056 C609.22,3.056 610.852,5.552 610.212,9.424 L609.508,13.232 C608.836,16.944 606.692,18.8 602.084,18.8 Z M617.772,26.352 C612.748,26.352 611.084,23.472 611.948,18.736 L613.58,9.616 C614.476,4.464 617.036,2.736 620.844,2.736 C625.132,2.736 627.404,5.232 626.572,9.872 L626.124,12.432 L621.772,12.432 L622.252,9.712 C622.636,7.44 622.156,6.416 620.556,6.416 C619.052,6.416 618.252,7.312 617.836,9.776 L616.204,18.928 C615.724,21.648 616.556,22.512 617.996,22.512 C619.436,22.512 620.14,21.68 620.588,19.056 L621.036,16.528 L625.42,16.528 L624.94,19.28 C624.108,24.112 622.188,26.352 617.772,26.352 Z M634.164,26.352 C629.268,26.352 627.892,23.44 628.756,18.48 L631.476,3.056 L635.668,3.056 L632.852,19.024 C632.372,21.584 633.044,22.32 634.42,22.32 C635.796,22.32 636.564,21.68 636.98,19.152 L639.828,3.056 L643.988,3.056 L641.108,19.44 C640.276,24.24 638.452,26.352 634.164,26.352 Z M658.396,6.832 L654.62,6.832 L651.26,26 L647.132,26 L650.492,6.832 L646.684,6.832 L647.356,3.056 L659.068,3.056 L658.396,6.832 Z" id="JUMPCUT"></path>
            </g>
        </g>
    </g>
</svg>