
<svg width="79px" height="43px" viewBox="0 0 79 43" version="1.1" xmlns="http://www.w3.org/2000/svg" xmlns:xlink="http://www.w3.org/1999/xlink">
    <g id="Page-1" stroke="none" stroke-width="1" fill="none" fill-rule="evenodd">
        <g id="DC1-JT-Copy-14" transform="translate(-219.000000, -2113.000000)">
            <g id="Courses" transform="translate(146.000000, 2077.000000)">
                <g id="Group-5-Copy-8" transform="translate(0.000000, 36.000000)">
                    <g id="VA" transform="translate(73.000000, 0.000000)">
                        <path d="M0.135428571,2.17965517 L10.0066667,21.6186207 L21.9544762,14.0862069 L21.9544762,0.378103448 L1.264,0.378103448 C1.06874778,0.378367266 0.87599913,0.421418111 0.699714286,0.504137931 C0.398857007,0.652028763 0.170191334,0.911936186 0.0642943947,1.2263729 C-0.0416025443,1.54080962 -0.0160038108,1.88386298 0.135428571,2.17965517" id="Path" fill="#24304A"></path>
                        <path d="M42.8255238,0.986034483 L10.0066667,21.6186207 L20.3744762,42.0436207 C20.4929415,42.286795 20.691979,42.4829221 20.9387619,42.5996552 C21.2389435,42.7488732 21.5870876,42.7740977 21.9061903,42.6697492 C22.2252931,42.5654007 22.4890574,42.3400787 22.6391429,42.0436207 L42.8857143,2.17965517 C42.9753502,2.00765526 43.0217932,1.81697244 43.0211429,1.62362069 C43.0211748,1.39883045 42.9587252,1.17832493 42.8405714,0.986034483" id="Path" fill="#8B68FF"></path>
                        <path d="M41.7420952,0.378103448 L21.9469524,0.378103448 L21.9469524,14.0862069 L42.8255238,0.986034483 C42.5969054,0.610856457 42.1861989,0.380401738 41.7420952,0.378103448" id="Path" fill="#00E7F5"></path>
                        <path d="M35.5725714,40.7758621 L45.4438095,21.3294828 L57.391619,28.8396552 L57.391619,42.5774204 L36.7086667,42.5774138 C36.5124457,42.5780546 36.3189332,42.5322907 36.144381,42.4439655 C35.5258849,42.1330369 35.2720914,41.3926614 35.5725714,40.7758621" id="Path" fill="#00E7F5"></path>
                        <path d="M78.247619,41.9694828 L45.4438095,21.3294828 L55.811619,0.904482759 C55.9347212,0.664581423 56.1324434,0.469750372 56.3759048,0.348448276 C56.6760863,0.199230204 57.0242304,0.174005786 57.3433332,0.278354254 C57.662436,0.382702722 57.9262003,0.608024746 58.0762857,0.904482759 L78.3153333,40.7758621 C78.4049692,40.947862 78.4514122,41.1385448 78.4507619,41.3318966 C78.4472695,41.5595359 78.3823487,41.7821569 78.2626667,41.9768966" id="Path" fill="#24304A"></path>
                        <path d="M77.1792381,42.5774138 L57.391619,42.5774289 L57.391619,28.8396552 L78.247619,41.9694828 C78.022287,42.3479579 77.6094948,42.5795829 77.1641905,42.5774138" id="Path" fill="#8B68FF"></path>
                    </g>
                </g>
            </g>
        </g>
    </g>
</svg>