
<svg width="29px" height="16px" viewBox="0 0 29 16" version="1.1" xmlns="http://www.w3.org/2000/svg" xmlns:xlink="http://www.w3.org/1999/xlink">
    <g id="Page-1" stroke="none" stroke-width="1" fill="none" fill-rule="evenodd">
        <g id="DC1-JT-Copy-14" transform="translate(-2320.000000, -5322.000000)">
            <g id="FOOTER-Copy-3" transform="translate(1204.000000, 5182.000000)">
                <g id="Courses" transform="translate(1116.000000, 91.000000)">
                    <g id="VA" transform="translate(0.000000, 49.000000)">
                        <path d="M0.0497142857,0.811034483 L3.67333333,8.04413793 L8.0592381,5.24137931 L8.0592381,0.140689655 L0.464,0.140689655 C0.392325134,0.14078782 0.321569301,0.156806739 0.256857143,0.187586207 C0.146415863,0.242615354 0.0624752997,0.339325093 0.0236017398,0.456324801 C-0.0152718201,0.573324509 -0.00587481661,0.700972273 0.0497142857,0.811034483" id="Path" fill="#BAC4CB" opacity="0.600000024"></path>
                        <path d="M15.7207619,0.366896552 L3.67333333,8.04413793 L7.4792381,15.6441379 C7.52272538,15.7346214 7.59578975,15.8075989 7.68638095,15.8510345 C7.79657419,15.9065575 7.92437391,15.9159433 8.04151291,15.877116 C8.1586519,15.8382886 8.25547677,15.7544479 8.31057143,15.6441379 L15.7428571,0.811034483 C15.7757615,0.747034516 15.7928102,0.67608277 15.7925714,0.604137931 C15.7925832,0.520495051 15.7696586,0.438446485 15.7262857,0.366896552" id="Path" fill="#E7EAEC"></path>
                        <path d="M15.3230476,0.140689655 L8.05647619,0.140689655 L8.05647619,5.24137931 L15.7207619,0.366896552 C15.6368387,0.227295426 15.486073,0.141544833 15.3230476,0.140689655" id="Path" fill="#C9D1D6"></path>
                        <path d="M13.0582857,15.1724138 L16.6819048,7.93655172 L21.0678095,10.7310345 L21.0678095,15.8427611 L13.4753333,15.8427586 C13.4033028,15.8429971 13.3322666,15.8259686 13.2681905,15.7931034 C13.0411476,15.6774091 12.9479829,15.4019205 13.0582857,15.1724138" id="Path" fill="#C9D1D6"></path>
                        <path d="M28.7238095,15.6165517 L16.6819048,7.93655172 L20.4878095,0.336551724 C20.5329989,0.247286111 20.6055805,0.174790836 20.6949524,0.129655172 C20.8051456,0.0741321689 20.9329453,0.0647463391 21.0500843,0.103573676 C21.1672233,0.142401013 21.2640482,0.226241766 21.3191429,0.336551724 L28.7486667,15.1724138 C28.781571,15.2364138 28.7986197,15.3073655 28.798381,15.3793103 C28.7970989,15.4640133 28.7732672,15.5468491 28.7293333,15.6193103" id="Path" fill="#BAC4CB" opacity="0.600000024"></path>
                        <path d="M28.331619,15.8427586 L21.0678095,15.8427642 L21.0678095,10.7310345 L28.7238095,15.6165517 C28.6410927,15.7573797 28.4895614,15.8435657 28.3260952,15.8427586" id="Path" fill="#E7EAEC"></path>
                    </g>
                </g>
            </g>
        </g>
    </g>
</svg>