<svg width="16px" height="16px" viewBox="0 0 16 16" version="1.1" xmlns="http://www.w3.org/2000/svg" xmlns:xlink="http://www.w3.org/1999/xlink">
    <g id="Page-1" stroke="none" stroke-width="1" fill="none" fill-rule="evenodd">
        <g id="JUMPTOP-Copy" transform="translate(-1342.000000, -37.000000)" fill="#615B64">
            <g id="Dropdown" transform="translate(991.000000, 0.000000)">
                <path d="M366.69909,52.707242 C366.51161,52.8946877 366.257288,53 365.992097,53 C365.726907,53 365.472584,52.8946877 365.285105,52.707242 L358.99118,46.417016 L352.70305,52.7018004 C352.311989,53.0884915 351.681821,53.0868091 351.292832,52.6980355 C350.903844,52.3092619 350.902183,51.6794639 351.289115,51.2886462 L357.577445,45.0040615 L351.290264,38.7205751 C350.909444,38.3288312 350.913928,37.7040739 351.300331,37.3178297 C351.686734,36.9315855 352.311858,36.926994 352.703899,37.3075207 L358.99133,43.5909572 L365.284006,37.3020293 C365.535438,37.0440514 365.906323,36.9412562 366.254789,37.0329654 C366.603255,37.1246746 366.87538,37.3966972 366.967069,37.7449777 C367.058758,38.0932582 366.955824,38.463904 366.697641,38.7151335 L360.405315,45.0040615 L366.69924,51.2942875 C366.886739,51.4816557 366.992065,51.7358022 366.992036,52.0007957 C366.992008,52.2657893 366.886629,52.5199135 366.69909,52.707242 Z" id="Path"></path>
            </g>
        </g>
    </g>
</svg>