<?xml version="1.0" encoding="utf-8"?>
<!-- Generator: Adobe Illustrator 22.1.0, SVG Export Plug-In . SVG Version: 6.00 Build 0)  -->
<svg version="1.1" id="Layer_1" xmlns="http://www.w3.org/2000/svg" xmlns:xlink="http://www.w3.org/1999/xlink" x="0px" y="0px"
	 viewBox="0 0 23.3 16" style="enable-background:new 0 0 23.3 16;" xml:space="preserve">
<style type="text/css">
	.st0{fill:#A0A7B2;}
	.st1{fill:#FAFAFA;}
	.st2{display:none;fill:#A0A7B2;}
</style>
<g>
	<path class="st0" d="M22.3,1.5c-0.6-1.1-1.3-1.3-2.7-1.4C18.2,0,14.7,0,11.6,0c-3,0-6.5,0-7.9,0.1C2.3,0.2,1.6,0.4,1,1.5
		C0.3,2.7,0,4.6,0,8c0,0,0,0,0,0c0,0,0,0,0,0v0c0,3.4,0.3,5.3,1,6.4c0.6,1.1,1.3,1.3,2.7,1.4C5.1,16,8.6,16,11.6,16
		c3,0,6.5,0,7.9-0.1c1.4-0.1,2.1-0.3,2.7-1.4c0.7-1.1,1-3.1,1-6.4c0,0,0,0,0,0c0,0,0,0,0,0C23.3,4.6,22.9,2.7,22.3,1.5z"/>
	<polygon class="st1" points="8.7,12.4 8.7,3.6 16,8 	"/>
</g>
<path class="st2" d="M12.9,16V8.7h2.4l0.4-2.8h-2.8V4c0-0.8,0.2-1.4,1.4-1.4l1.5,0V0.1c-0.3,0-1.2-0.1-2.2-0.1
	c-2.2,0-3.7,1.3-3.7,3.8v2.1H7.5v2.8h2.5V16L12.9,16L12.9,16z"/>
</svg>
