<?xml version="1.0" encoding="utf-8"?>
<!-- Generator: Adobe Illustrator 21.0.0, SVG Export Plug-In . SVG Version: 6.00 Build 0)  -->
<svg version="1.1" id="Layer_1" xmlns="http://www.w3.org/2000/svg" xmlns:xlink="http://www.w3.org/1999/xlink" x="0px" y="0px"
	 viewBox="0 0 20 20" style="enable-background:new 0 0 20 20;" xml:space="preserve">
<g>
	<path d="M10,19.9c1.7,0,3.1-1.5,3.1-3.3H6.9C6.9,18.4,8.3,19.9,10,19.9z"/>
	<path d="M10,19.9c1.7,0,3.1-1.5,3.1-3.3H6.9C6.9,18.4,8.3,19.9,10,19.9z"/>
	<path d="M17.1,7.3c0-4.6-3.4-7-7.2-7.1c-3.6,0-7.1,2.5-7.1,7c0,4.3,4.1,5.8,4.2,7.5h5.9v0.1C13.1,13.1,17.1,11.6,17.1,7.3z
		 M9.9,2.2c2.5,0.1,5.2,1.4,5.2,5.1L9.9,2.2z"/>
</g>
</svg>
