<?xml version="1.0" encoding="utf-8"?>
<!-- Generator: Adobe Illustrator 23.0.0, SVG Export Plug-In . SVG Version: 6.00 Build 0)  -->
<svg version="1.1" id="Layer_1" xmlns="http://www.w3.org/2000/svg" xmlns:xlink="http://www.w3.org/1999/xlink" x="0px" y="0px"
	 viewBox="0 0 20 20" style="enable-background:new 0 0 20 20;" xml:space="preserve">
<path d="M15.77,3.04c-0.09,0-0.16,0.03-0.21,0.08L10,8.67L4.45,3.12C4.4,3.07,4.33,3.04,4.23,3.04c-0.09,0-0.16,0.03-0.21,0.08
	l-0.9,0.9C3.07,4.07,3.04,4.14,3.04,4.23c0,0.09,0.03,0.16,0.08,0.21L8.67,10l-5.55,5.55c-0.05,0.05-0.08,0.12-0.08,0.21
	c0,0.09,0.03,0.16,0.08,0.21l0.9,0.9c0.05,0.05,0.12,0.08,0.21,0.08c0.09,0,0.16-0.03,0.21-0.08L10,11.33l5.55,5.55
	c0.05,0.05,0.12,0.08,0.21,0.08c0.09,0,0.16-0.03,0.21-0.08l0.9-0.9c0.05-0.05,0.08-0.12,0.08-0.21c0-0.09-0.03-0.16-0.08-0.21
	L11.33,10l5.55-5.55c0.05-0.05,0.08-0.12,0.08-0.21c0-0.09-0.03-0.16-0.08-0.21l-0.9-0.9C15.93,3.07,15.86,3.04,15.77,3.04z"/>
</svg>
