<?xml version="1.0" encoding="utf-8"?>
<!-- Generator: Adobe Illustrator 21.0.0, SVG Export Plug-In . SVG Version: 6.00 Build 0)  -->
<svg version="1.1" id="Layer_1" xmlns="http://www.w3.org/2000/svg" xmlns:xlink="http://www.w3.org/1999/xlink" x="0px" y="0px"
	 viewBox="0 0 20 20" style="enable-background:new 0 0 20 20;" xml:space="preserve">
<g>
	<path d="M10,0.1c-4.4,0-8,3.6-8,8c0,0.5,0,1,0.1,1.5c0,0,0,0.1,0.1,0.3c0.1,0.5,0.3,1.1,0.5,1.6c0.9,2,2.7,5.1,6.9,8.5
		c0.1,0.1,0.2,0.1,0.4,0.1s0.3,0,0.4-0.1c4.1-3.3,6-6.4,6.9-8.5c0.2-0.5,0.4-1,0.5-1.6c0-0.2,0.1-0.2,0.1-0.3C17.9,9,18,8.5,18,8
		C18,3.6,14.4,0.1,10,0.1z M10,13.2c-2.8,0-5.1-2.3-5.1-5.1S7.2,3.1,10,3.1c2.8,0,5.1,2.3,5.1,5.1C15.1,10.9,12.8,13.2,10,13.2z"/>
</g>
</svg>
