<?xml version="1.0" encoding="utf-8"?>
<!-- Generator: Adobe Illustrator 23.0.0, SVG Export Plug-In . SVG Version: 6.00 Build 0)  -->
<svg version="1.1" id="Layer_1" xmlns="http://www.w3.org/2000/svg" xmlns:xlink="http://www.w3.org/1999/xlink" x="0px" y="0px"
	 viewBox="0 0 20 20" style="enable-background:new 0 0 20 20;" xml:space="preserve">
<style type="text/css">
	.st0{fill:#FFFFFF;}
</style>
<g>
	<path class="st0" d="M14.95,2.12c1.5,0.72,2.69,1.69,3.58,2.9c0.88,1.22,1.33,2.56,1.33,4.02c0,1.46-0.44,2.8-1.33,4.02
		c-0.88,1.22-2.08,2.19-3.58,2.91c-1.5,0.72-3.15,1.08-4.95,1.08c-1.21,0-2.4-0.18-3.58-0.54c-1.67,1.18-3.45,1.77-5.35,1.77
		c-0.18,0-0.35-0.05-0.5-0.15s-0.27-0.24-0.35-0.4c-0.08-0.17-0.1-0.34-0.06-0.52c0.04-0.18,0.12-0.33,0.23-0.44
		c0.12-0.12,0.34-0.4,0.67-0.87c0.51-0.69,0.89-1.36,1.12-2c-1.36-1.44-2.04-3.05-2.04-4.85c0-1.46,0.44-2.8,1.33-4.02
		c0.88-1.22,2.08-2.19,3.58-2.9C6.56,1.41,8.2,1.05,10,1.05C11.79,1.05,13.44,1.41,14.95,2.12z M5.67,3.18
		c-1.32,0.6-2.37,1.42-3.14,2.46C1.77,6.68,1.38,7.82,1.38,9.05c0,1.46,0.56,2.8,1.69,4l0.54,0.58l-0.27,0.73
		c-0.33,0.87-0.86,1.76-1.58,2.66c1.39-0.13,2.71-0.63,3.96-1.5l0.5-0.38l0.58,0.19c1.03,0.33,2.09,0.5,3.19,0.5
		c1.56,0,3.01-0.3,4.33-0.9c1.32-0.6,2.37-1.42,3.14-2.46c0.77-1.04,1.15-2.17,1.15-3.41c0-1.23-0.38-2.37-1.15-3.41
		c-0.77-1.04-1.81-1.86-3.14-2.46c-1.32-0.6-2.76-0.9-4.33-0.9C8.44,2.28,6.99,2.58,5.67,3.18z"/>
</g>
</svg>
