<?xml version="1.0" encoding="utf-8"?>
<!-- Generator: Adobe Illustrator 23.0.0, SVG Export Plug-In . SVG Version: 6.00 Build 0)  -->
<svg version="1.1" id="Layer_1" xmlns="http://www.w3.org/2000/svg" xmlns:xlink="http://www.w3.org/1999/xlink" x="0px" y="0px"
	 viewBox="0 0 20 20" style="enable-background:new 0 0 20 20;" xml:space="preserve">
<g>
	<path d="M12.66,7.34c0.73,0.73,1.09,1.62,1.09,2.66c0,1.04-0.37,1.93-1.09,2.66c-0.73,0.73-1.62,1.09-2.66,1.09
		c-1.04,0-1.93-0.36-2.66-1.09C6.61,11.93,6.25,11.04,6.25,10c0-1.04,0.36-1.93,1.09-2.66C8.07,6.62,8.96,6.25,10,6.25
		C11.04,6.25,11.93,6.62,12.66,7.34z"/>
</g>
<path d="M10,19.8c-5.41,0-9.81-4.4-9.81-9.8c0-5.41,4.4-9.81,9.81-9.81c5.41,0,9.8,4.4,9.8,9.81C19.8,15.41,15.41,19.8,10,19.8z
	 M10,1.4c-4.74,0-8.6,3.86-8.6,8.6c0,4.75,3.86,8.61,8.6,8.61c4.75,0,8.61-3.86,8.61-8.61C18.61,5.26,14.75,1.4,10,1.4z"/>
<path d="M10,17.04c-3.88,0-7.04-3.16-7.04-7.04c0-3.88,3.16-7.04,7.04-7.04c3.88,0,7.04,3.16,7.04,7.04
	C17.04,13.88,13.88,17.04,10,17.04z M10,4.16c-3.22,0-5.84,2.62-5.84,5.84c0,3.22,2.62,5.84,5.84,5.84c3.22,0,5.84-2.62,5.84-5.84
	C15.84,6.78,13.22,4.16,10,4.16z"/>
</svg>
