<?xml version="1.0" encoding="utf-8"?>
<!-- Generator: Adobe Illustrator 23.0.0, SVG Export Plug-In . SVG Version: 6.00 Build 0)  -->
<svg version="1.1" id="Layer_1" xmlns="http://www.w3.org/2000/svg" xmlns:xlink="http://www.w3.org/1999/xlink" x="0px" y="0px"
	 viewBox="0 0 20 20" style="enable-background:new 0 0 20 20;" xml:space="preserve">
<style type="text/css">
	.st0{fill:#FFFFFF;}
</style>
<g>
	<path class="st0" d="M18.71,14.02c0.08,0.37,0.04,0.72-0.1,1.07c-0.14,0.35-0.37,0.63-0.68,0.84c-0.31,0.21-0.66,0.31-1.05,0.31
		H3.13c-0.39,0-0.74-0.1-1.05-0.31c-0.31-0.21-0.54-0.49-0.68-0.84s-0.18-0.71-0.1-1.07c0.08-0.36,0.26-0.68,0.55-0.94
		c0.65-0.63,1.11-1.26,1.37-1.91c0.36-0.94,0.55-2.24,0.55-3.91c0-1.02,0.25-1.96,0.74-2.83c0.49-0.87,1.17-1.59,2.03-2.15
		c0.86-0.56,1.81-0.88,2.85-0.96v-0.7c0-0.18,0.06-0.33,0.18-0.45S9.82,0,10,0c0.18,0,0.33,0.06,0.45,0.18s0.18,0.27,0.18,0.45v0.7
		c1.04,0.08,1.99,0.4,2.85,0.96c0.86,0.56,1.54,1.28,2.03,2.15c0.49,0.87,0.74,1.82,0.74,2.83c0,1.67,0.18,2.97,0.55,3.91
		c0.26,0.65,0.72,1.29,1.37,1.91C18.45,13.35,18.63,13.66,18.71,14.02z M17.46,14.63c0.1-0.25,0.05-0.46-0.16-0.64
		c-0.78-0.75-1.33-1.55-1.64-2.38C15.22,10.53,15,9.09,15,7.27c0-0.86-0.22-1.65-0.66-2.38c-0.44-0.73-1.05-1.31-1.82-1.74
		C11.75,2.71,10.91,2.5,10,2.5c-0.91,0-1.75,0.21-2.52,0.64C6.71,3.57,6.11,4.15,5.66,4.88C5.22,5.61,5,6.41,5,7.27
		c0,1.82-0.22,3.28-0.66,4.38c-0.31,0.81-0.86,1.59-1.64,2.34c-0.21,0.18-0.26,0.4-0.16,0.64C2.64,14.88,2.84,15,3.13,15h13.75
		C17.16,15,17.36,14.88,17.46,14.63z M10.88,18.38c0.25-0.25,0.37-0.54,0.37-0.88h1.25c0,0.68-0.25,1.26-0.74,1.76
		C11.26,19.75,10.68,20,10,20c-0.68,0-1.26-0.25-1.76-0.74c-0.5-0.5-0.74-1.08-0.74-1.76h1.25c0,0.34,0.12,0.63,0.37,0.88
		c0.25,0.25,0.54,0.37,0.88,0.37C10.34,18.75,10.63,18.63,10.88,18.38z"/>
</g>
</svg>
