<?xml version="1.0" encoding="utf-8"?>
<!-- Generator: Adobe Illustrator 23.0.0, SVG Export Plug-In . SVG Version: 6.00 Build 0)  -->
<svg version="1.1" id="Layer_1" xmlns="http://www.w3.org/2000/svg" xmlns:xlink="http://www.w3.org/1999/xlink" x="0px" y="0px"
	 viewBox="0 0 20 20" style="enable-background:new 0 0 20 20;" xml:space="preserve">
<style type="text/css">
	.st0{fill:#FFFFFF;}
</style>
<g>
	<path class="st0" d="M17.5,19.06v-1.64c0-1.09-0.39-2.03-1.17-2.81s-1.72-1.17-2.81-1.17c-0.21,0-0.53,0.07-0.98,0.2
		c-0.89,0.29-1.73,0.43-2.54,0.43c-0.81,0-1.65-0.14-2.54-0.43c-0.44-0.13-0.77-0.2-0.98-0.2c-1.09,0-2.03,0.39-2.81,1.17
		S2.5,16.33,2.5,17.42v1.64H1.25v-1.64c0-0.94,0.23-1.81,0.7-2.62c0.47-0.81,1.11-1.45,1.91-1.91c0.81-0.47,1.68-0.7,2.62-0.7
		c0.34,0,0.78,0.09,1.33,0.27c0.36,0.1,0.66,0.18,0.9,0.23c0.39,0.08,0.82,0.12,1.29,0.12s0.9-0.04,1.29-0.12
		c0.23-0.05,0.53-0.13,0.9-0.23c0.55-0.18,0.99-0.27,1.33-0.27c0.94,0,1.81,0.23,2.62,0.7c0.81,0.47,1.45,1.11,1.91,1.91
		c0.47,0.81,0.7,1.68,0.7,2.62v1.64H17.5z M7.48,10.27C6.71,9.83,6.11,9.23,5.66,8.46C5.22,7.69,5,6.85,5,5.94
		c0-0.91,0.22-1.75,0.66-2.52C6.11,2.65,6.71,2.04,7.48,1.6C8.25,1.16,9.09,0.94,10,0.94c0.91,0,1.75,0.22,2.52,0.66
		c0.77,0.44,1.37,1.05,1.82,1.82C14.78,4.19,15,5.03,15,5.94c0,0.91-0.22,1.75-0.66,2.52c-0.44,0.77-1.05,1.37-1.82,1.82
		c-0.77,0.44-1.61,0.66-2.52,0.66C9.09,10.94,8.25,10.72,7.48,10.27z M7.34,3.28C6.61,4.01,6.25,4.9,6.25,5.94
		c0,1.04,0.36,1.93,1.09,2.66C8.07,9.32,8.96,9.69,10,9.69c1.04,0,1.93-0.36,2.66-1.09c0.73-0.73,1.09-1.61,1.09-2.66
		c0-1.04-0.37-1.93-1.09-2.66C11.93,2.55,11.04,2.19,10,2.19C8.96,2.19,8.07,2.55,7.34,3.28z"/>
</g>
</svg>
