<?xml version="1.0" encoding="utf-8"?>
<!-- Generator: Adobe Illustrator 23.0.0, SVG Export Plug-In . SVG Version: 6.00 Build 0)  -->
<svg version="1.1" id="Layer_1" xmlns="http://www.w3.org/2000/svg" xmlns:xlink="http://www.w3.org/1999/xlink" x="0px" y="0px"
	 viewBox="0 0 71 15" style="enable-background:new 0 0 71 15;" xml:space="preserve">
<style type="text/css">
	.st0{fill:#FFFFFF;}
</style>
<path class="st0" d="M2.13,14.4c0.56,0.01,1.12-0.1,1.64-0.31c0.42-0.17,0.8-0.42,1.12-0.74c0.3-0.32,0.54-0.68,0.71-1.08
	c0.17-0.37,0.31-0.76,0.4-1.15c0.08-0.33,0.15-0.71,0.21-1.15l1.32-8.86H4.22l-1.2,8.16C2.99,9.48,2.95,9.69,2.9,9.89
	c-0.05,0.19-0.12,0.37-0.2,0.55c-0.07,0.19-0.2,0.36-0.37,0.48c-0.17,0.11-0.36,0.17-0.56,0.17c-0.53,0.01-1.01-0.28-1.24-0.76
	L0,13.98C0.68,14.25,1.4,14.39,2.13,14.4L2.13,14.4L2.13,14.4z M13.83,9.34c-0.05,0.39-0.13,0.77-0.24,1.14
	c-0.11,0.38-0.47,0.64-0.86,0.62c-0.35,0.02-0.65-0.24-0.67-0.59c0-0.02,0-0.03,0-0.05c-0.01-0.38,0.02-0.77,0.08-1.14l1.22-8.21
	h-3.32L8.76,9.65c-0.46,3.17,0.7,4.75,3.47,4.75c0.67,0.01,1.33-0.11,1.96-0.35c0.5-0.19,0.97-0.48,1.36-0.85
	c0.35-0.35,0.63-0.76,0.85-1.2c0.2-0.39,0.37-0.81,0.49-1.23c0.1-0.37,0.18-0.74,0.23-1.11l1.27-8.54h-3.32L13.83,9.34z M31.83,1.11
	h-4.09l-1.47,4.52c-0.18,0.59-0.41,1.4-0.68,2.43h-0.03l0.08-6.95H21.5l-3.37,13.07h3.57l1.08-5.32c0.07-0.37,0.15-0.89,0.26-1.57
	c0.11-0.68,0.18-1.12,0.21-1.33h0.03l-0.07,8.21h2.7l1.74-5.35c0.12-0.36,0.27-0.86,0.46-1.51c0.18-0.65,0.31-1.1,0.39-1.35h0.03
	l-0.91,8.21h3.45L31.83,1.11z M36.82,9.89c0.67,0.03,1.35-0.03,2-0.17c0.57-0.13,1.12-0.37,1.61-0.69c0.51-0.35,0.93-0.81,1.21-1.36
	c0.35-0.66,0.57-1.38,0.66-2.12c0.12-0.71,0.1-1.43-0.07-2.13c-0.14-0.55-0.45-1.03-0.9-1.38c-0.45-0.34-0.96-0.58-1.51-0.71
	c-0.66-0.15-1.33-0.23-2-0.22H34.8l-1.94,13.07h3.32L36.82,9.89z M38.39,6.6c-0.32,0.26-0.72,0.38-1.13,0.35l0.46-3.02l0.24-0.02
	c0.35-0.03,0.67,0.15,0.84,0.46c0.18,0.35,0.23,0.74,0.15,1.12C38.9,5.92,38.7,6.31,38.39,6.6L38.39,6.6z M49.78,0.88
	c-0.28,0-0.55,0.02-0.82,0.07c-0.34,0.06-0.68,0.15-1,0.27c-0.38,0.13-0.76,0.31-1.11,0.51c-0.4,0.24-0.77,0.52-1.1,0.85
	c-0.38,0.37-0.72,0.78-1.01,1.23c-0.33,0.53-0.61,1.1-0.82,1.7c-0.26,0.72-0.44,1.46-0.55,2.22c-0.39,1.68-0.14,3.44,0.7,4.94
	c0.73,1.13,2,1.79,3.34,1.73c0.71-0.01,1.42-0.17,2.07-0.47l0.76-3.66c-0.51,0.49-1.18,0.79-1.89,0.83
	c-0.47,0.03-0.92-0.19-1.2-0.56c-0.28-0.39-0.43-0.85-0.43-1.33c-0.01-0.53,0.01-1.05,0.07-1.58c0.05-0.39,0.14-0.78,0.27-1.16
	c0.13-0.38,0.29-0.75,0.49-1.1c0.19-0.35,0.46-0.65,0.79-0.87c0.33-0.22,0.71-0.33,1.11-0.33c0.57,0.01,1.1,0.3,1.43,0.76l0.57-3.74
	C50.92,0.97,50.35,0.87,49.78,0.88L49.78,0.88L49.78,0.88z M57.58,9.34c-0.05,0.39-0.13,0.77-0.24,1.14
	c-0.11,0.38-0.47,0.64-0.86,0.62c-0.35,0.02-0.65-0.24-0.67-0.59c0-0.02,0-0.03,0-0.05c-0.01-0.38,0.02-0.77,0.08-1.14l1.22-8.21
	h-3.32l-1.27,8.54c-0.46,3.17,0.7,4.75,3.47,4.75c0.67,0.01,1.33-0.11,1.96-0.35c0.5-0.19,0.97-0.48,1.36-0.85
	c0.35-0.35,0.63-0.76,0.85-1.2c0.2-0.39,0.37-0.81,0.49-1.23c0.1-0.36,0.17-0.74,0.22-1.11l1.27-8.54H58.8L57.58,9.34z M68.62,4.3
	h1.9L71,1.11h-7.05L63.48,4.3h1.82l-1.47,9.88h3.32L68.62,4.3z"/>
</svg>
