<svg xmlns="http://www.w3.org/2000/svg" viewBox="0 0 223.44 39.68"><defs><style>.cls-1{fill:#4ebcbd;}.cls-2{fill:#001017;}.cls-3{fill:#fff;}</style></defs><title>Zasób 2</title><g id="Warstwa_2" data-name="Warstwa 2"><g id="Ebene_1" data-name="Ebene 1"><path class="cls-1" d="M52.4,28.34h1l1.36,3.34,1.41-3.34h.92l-1.89,4.34v2.8h-.88v-2.8Z"/><path class="cls-1" d="M60.42,30c1.55,0,1.93,1.31,1.93,2.82s-.39,2.82-1.93,2.82-1.93-1.31-1.93-2.82S58.88,30,60.42,30Zm1,2.82c0-1.16-.17-2.16-1.07-2.16s-1,1-1,2.16.17,2.16,1,2.16S61.47,34,61.47,32.8Z"/><path class="cls-1" d="M68.17,35.48h-.8v-.63h0a1.43,1.43,0,0,1-1.3.77c-1.41,0-1.41-1.07-1.41-1.7v-3.8h.84v3.7c0,.41,0,1.08.79,1.08a1,1,0,0,0,1.06-1.08v-3.7h.84Z"/><path class="cls-1" d="M70.73,30.12h.84v.8h0c.24-.51.56-.94,1.16-.94a.86.86,0,0,1,.37.06v.82a2.3,2.3,0,0,0-.45,0,1.19,1.19,0,0,0-1.1,1.27v3.39h-.84Z"/><path class="cls-1" d="M79.34,30.78h-.78v-.66h.78v-.63c0-.81.35-1.23,1.16-1.23h.61V29h-.39c-.36,0-.54.14-.54.51v.63h.92v.66h-.92v4.7h-.84Z"/><path class="cls-1" d="M83.28,28.34h.84v1h-.84Zm0,1.78h.84v5.36h-.84Z"/><path class="cls-1" d="M86.71,30.12h.84v.8h0c.24-.51.56-.94,1.16-.94a.86.86,0,0,1,.37.06v.82a2.3,2.3,0,0,0-.45,0,1.19,1.19,0,0,0-1.1,1.27v3.39h-.84Z"/><path class="cls-1" d="M93.28,31.69c0-.68-.18-1.05-.79-1.05a.77.77,0,0,0-.87.82c0,.63.66.75,1.32,1s1.31.45,1.31,1.51a1.57,1.57,0,0,1-1.73,1.68,1.65,1.65,0,0,1-1.84-1.9h.84c0,.65.18,1.24,1,1.24a.84.84,0,0,0,.89-.89c0-.72-.66-.87-1.31-1.09s-1.32-.41-1.32-1.52S91.56,30,92.49,30c1.55,0,1.62,1.08,1.63,1.71Z"/><path class="cls-1" d="M96.68,28.56h.84v1.56h.93v.66h-.93v3.44c0,.43.11.6.55.6a2.58,2.58,0,0,0,.37,0v.69a3.54,3.54,0,0,1-.68.06c-.87,0-1.08-.36-1.08-1.06v-3.7H95.9v-.66h.78Z"/><path class="cls-1" d="M104.29,31.74c0-1.22.52-1.76,1.8-1.76,1.63,0,1.63,1,1.63,1.54v3c0,.22,0,.43.26.43a.3.3,0,0,0,.2,0v.6a3.05,3.05,0,0,1-.49,0c-.32,0-.72,0-.76-.69h0a1.52,1.52,0,0,1-1.29.77c-1,0-1.46-.6-1.46-1.56a1.39,1.39,0,0,1,1-1.48l1.13-.34c.61-.19.61-.36.61-.81s-.3-.79-.86-.79a.92.92,0,0,0-.92,1.05v0Zm2.59.82c-.31.33-1,.4-1.43.63A.85.85,0,0,0,105,34c0,.54.19.92.76.92a1.09,1.09,0,0,0,1.08-1Z"/><path class="cls-1" d="M113.86,35.48h-.8v-.66h0a1.22,1.22,0,0,1-1.16.8c-1.27,0-1.75-1.13-1.75-2.82,0-1.12.18-2.82,1.69-2.82a1.3,1.3,0,0,1,1.18.75h0V28.34h.84ZM112,34.9c.93,0,1.08-.88,1.08-2.1,0-1-.18-2.1-1.08-2.1s-1,.82-1,2.1S111.21,34.9,112,34.9Z"/><path class="cls-1" d="M119.87,35.48h-.8v-.66h0a1.22,1.22,0,0,1-1.16.8c-1.27,0-1.75-1.13-1.75-2.82,0-1.12.18-2.82,1.69-2.82a1.28,1.28,0,0,1,1.17.75h0V28.34h.84ZM118,34.9c.93,0,1.08-.88,1.08-2.1,0-1-.18-2.1-1.08-2.1s-1,.82-1,2.1S117.22,34.9,118,34.9Z"/><path class="cls-1" d="M122.43,30.12h.84v.8h0c.24-.51.56-.94,1.16-.94a.86.86,0,0,1,.37.06v.82a2.3,2.3,0,0,0-.45,0,1.19,1.19,0,0,0-1.1,1.27v3.39h-.84Z"/><path class="cls-1" d="M127.5,32.9c0,.82,0,2.06,1,2.06.8,0,.91-.84.91-1.24h.84a1.81,1.81,0,0,1-1.8,1.9c-1.31,0-1.85-.91-1.85-2.75,0-1.34.26-2.89,1.9-2.89s1.79,1.43,1.79,2.58v.34Zm1.94-.66V32c0-.6-.19-1.31-.93-1.31s-1,1.08-1,1.4v.2Z"/><path class="cls-1" d="M135.08,31.69c0-.68-.18-1.05-.79-1.05a.77.77,0,0,0-.87.82c0,.63.66.75,1.32,1s1.31.45,1.31,1.51a1.57,1.57,0,0,1-1.73,1.68,1.65,1.65,0,0,1-1.84-1.9h.84c0,.65.18,1.24,1,1.24a.84.84,0,0,0,.89-.89c0-.72-.66-.87-1.31-1.09s-1.32-.41-1.32-1.52.78-1.48,1.71-1.48c1.56,0,1.62,1.08,1.63,1.71Z"/><path class="cls-1" d="M140.76,31.69c0-.68-.18-1.05-.78-1.05a.77.77,0,0,0-.87.82c0,.63.65.75,1.31,1s1.32.45,1.32,1.51A1.58,1.58,0,0,1,140,35.62a1.64,1.64,0,0,1-1.83-1.9H139c0,.65.18,1.24,1,1.24a.85.85,0,0,0,.9-.89c0-.72-.66-.87-1.32-1.09s-1.31-.41-1.31-1.52S139.05,30,140,30c1.55,0,1.61,1.08,1.62,1.71Z"/><path class="cls-1" d="M144.25,34.42h.92v1.06h-.92Z"/><path class="cls-2" d="M50.38,6.36h2.4l1.87,4.19A23.57,23.57,0,0,1,55.49,13a23.33,23.33,0,0,1,.83-2.46l1.82-4.19h2.17l-4.76,11h-.22Z"/><path class="cls-2" d="M63.41,6.36h2.24V17.23H63.41Z"/><path class="cls-2" d="M68.84,15.09,70.67,14a2.41,2.41,0,0,0,2.2,1.36c.93,0,1.52-.46,1.52-1.1s-.61-1-1.63-1.49l-.56-.24c-1.61-.68-2.68-1.55-2.68-3.37a3,3,0,0,1,3.27-2.95A3.3,3.3,0,0,1,76,8L74.23,9.14a1.52,1.52,0,0,0-1.44-1,1,1,0,0,0-1.07,1c0,.68.42.95,1.37,1.36l.56.24c1.9.82,3,1.65,3,3.51,0,2-1.58,3.12-3.7,3.12A4.31,4.31,0,0,1,68.84,15.09Z"/><path class="cls-2" d="M80.16,6.36H82.4V17.23H80.16Z"/><path class="cls-2" d="M86.05,11.8a5.63,5.63,0,0,1,11.25,0,5.63,5.63,0,0,1-11.25,0Zm9,0a3.33,3.33,0,1,0-6.65,0,3.33,3.33,0,1,0,6.65,0Z"/><path class="cls-2" d="M104.18,12.18a15.17,15.17,0,0,1-1.3-1.49,19.15,19.15,0,0,1,.16,2v4.56H101v-11h.22l5.48,5.14a15.6,15.6,0,0,1,1.28,1.49s-.14-1.23-.14-2V6.36h2.09v11h-.22Z"/><path class="cls-2" d="M117.71,6.25h.19l4.6,11h-1.21l-.74-1.82h-5.49l-.72,1.82h-1.13Zm2.43,8.16-1.92-4.82a12.15,12.15,0,0,1-.41-1.29s-.23.78-.44,1.29l-1.91,4.82Z"/><path class="cls-2" d="M126,6.36h2.46c3,0,4.49,1.65,4.49,4.09s-1.52,4.08-4.49,4.08h-1.31v2.7H126Zm2.4,7.16c2.44,0,3.35-1.28,3.35-3.07s-.91-3.06-3.35-3.06h-1.25v6.13Z"/><path class="cls-2" d="M139.57,6.25h.19l4.6,11h-1.21l-.74-1.82h-5.49l-.72,1.82h-1.14ZM142,14.41l-1.92-4.82a12.15,12.15,0,0,1-.41-1.29s-.23.78-.44,1.29l-1.91,4.82Z"/><path class="cls-2" d="M154.87,17.23h-1.35l-2.1-3a6.15,6.15,0,0,1-1.15.1H149v2.88h-1.15V6.36h2.44c3,0,4.51,1.67,4.51,4a3.56,3.56,0,0,1-2.27,3.52Zm-4.66-3.89c2.46,0,3.37-1.26,3.37-3s-.93-3-3.37-3H149v6Z"/><path class="cls-2" d="M160.81,7.39h-3.34v-1h7.83v1H162v9.84h-1.15Z"/><path class="cls-2" d="M168.73,6.24h.16l5.05,6.31,5-6.31h.18v11H178V10.06c0-.5.05-1.25.05-1.25a12,12,0,0,1-.77,1.13L174,14.09h-.19l-3.24-4.15c-.35-.43-.79-1.13-.79-1.13s.07.75.07,1.25v7.17h-1.12Z"/><path class="cls-2" d="M183.73,6.36h6.61v1h-5.46v5.09h4.87v1h-4.87V16.2h5.68v1h-6.83Z"/><path class="cls-2" d="M195.94,9.67c-.3-.37-.75-1-.75-1s.1.77.1,1.24v7.33H194.2v-11h.19l6.49,7.67c.3.37.75,1,.75,1s-.08-.77-.08-1.23V6.36h1.07v11h-.19Z"/><path class="cls-2" d="M209.4,7.39h-3.34v-1h7.83v1h-3.34v9.84H209.4Z"/><path class="cls-2" d="M216.29,15.15l1-.51A2.94,2.94,0,0,0,220,16.33c1.26,0,2.25-.7,2.25-1.85s-.69-1.66-2-2.27l-.86-.4c-1.55-.7-2.4-1.45-2.4-3a2.63,2.63,0,0,1,2.86-2.6,3.21,3.21,0,0,1,2.94,1.63l-.93.57a2.2,2.2,0,0,0-2-1.18,1.54,1.54,0,0,0-1.73,1.55c0,1,.51,1.39,1.73,1.95l.86.4c1.81.8,2.73,1.69,2.73,3.32,0,1.79-1.42,2.87-3.37,2.87A3.93,3.93,0,0,1,216.29,15.15Z"/><path class="cls-1" d="M39.68,19.84A19.84,19.84,0,1,1,19.84,0,19.84,19.84,0,0,1,39.68,19.84Z"/><path class="cls-3" d="M18.15,31.05c.14,0,.14-.18.17-.3s.05-.23.08-.34c.07-.31.15-.61.24-.92l.15-.55c.16-.61.34-1.21.53-1.82.33-1,.68-2,1.08-3s.75-1.72,1.18-2.55.79-1.45,1.23-2.15.82-1.22,1.26-1.8.81-1,1.24-1.47.78-.8,1.19-1.18.72-.62,1.09-.9.64-.46,1-.67.53-.31.8-.45l.59-.29.36-.14c.21-.07.24-.33,0-.33-1,0-8.53,2.9-12.35,16.84a7.48,7.48,0,0,1,0-3.8c.34-1.76.68-3.06.95-4.11a18.38,18.38,0,0,0,.65-3.32,6.7,6.7,0,0,0-1.64-5.06,7.57,7.57,0,0,0-5.49-2.26A8.43,8.43,0,0,0,5,14.75a10.84,10.84,0,0,0-1.35,7.33,16.27,16.27,0,0,0,15.23,14q.45,0,.9,0a16.31,16.31,0,0,0,0-32.61,15.85,15.85,0,0,0-5.63,1,15.84,15.84,0,0,0-2.18,1,15.32,15.32,0,0,0-1.76,1.11A16.27,16.27,0,0,0,9,7.68c-.3.27-.58.54-.86.84a4.55,4.55,0,0,0-.4.46c-.08.12,0,.22.1.23S8,9.08,8.15,9A16.64,16.64,0,0,1,19.78,4.5h0a15.41,15.41,0,0,1,9.87,3.6l.13.11a15.52,15.52,0,0,1,4.81,15.67A15.58,15.58,0,0,1,19.84,35.19H19.5a15.5,15.5,0,0,1-15-13.87,9.62,9.62,0,0,1,2.24-7.49,7.22,7.22,0,0,1,5.41-2.49h.16c3.2.07,5.34,2.17,5.34,5.22a17.25,17.25,0,0,1-.64,3.79,25.69,25.69,0,0,0-.79,4.44,9.64,9.64,0,0,0,1.34,5.66c.08.14.17.27.25.4S18,31.09,18.15,31.05Z"/></g></g></svg>